<svg xmlns="http://www.w3.org/2000/svg" width="820" height="390" style="background:white;">
  <rect x="170" y="10" width="640" height="340" rx="5" fill="white" stroke="#0f172a" stroke-width="2"/>
  <text x="490" y="38" text-anchor="middle" font-family="Arial,sans-serif" font-size="14" font-weight="bold" fill="#0f172a">HRIS System</text>
  <text x="490" y="56" text-anchor="middle" font-family="Arial,sans-serif" font-size="11" fill="#64748b">UC-14: Overtime &amp; Leave Filing Workflow</text>
<line x1="109" y1="116" x2="290" y2="90" stroke="#475569" stroke-width="1.5"/>
<line x1="109" y1="116" x2="290" y2="180" stroke="#475569" stroke-width="1.5"/>
<line x1="109" y1="276" x2="290" y2="180" stroke="#475569" stroke-width="1.5"/>
<line x1="109" y1="276" x2="290" y2="270" stroke="#475569" stroke-width="1.5"/>
<ellipse cx="490" cy="90" rx="200" ry="30" stroke="#0f172a" stroke-width="2" fill="white"/>
<text x="490" y="87.5" text-anchor="middle" font-family="Arial,sans-serif" font-size="12" font-weight="bold" fill="#0f172a">Submit OT / Leave</text>
<text x="490" y="102.5" text-anchor="middle" font-family="Arial,sans-serif" font-size="12" font-weight="bold" fill="#0f172a">Request</text>
<ellipse cx="490" cy="180" rx="200" ry="30" stroke="#0f172a" stroke-width="2" fill="white"/>
<text x="490" y="177.5" text-anchor="middle" font-family="Arial,sans-serif" font-size="12" font-weight="bold" fill="#0f172a">Approve or Reject</text>
<text x="490" y="192.5" text-anchor="middle" font-family="Arial,sans-serif" font-size="12" font-weight="bold" fill="#0f172a">Request</text>
<ellipse cx="490" cy="270" rx="200" ry="30" stroke="#0f172a" stroke-width="2" fill="white"/>
<text x="490" y="267.5" text-anchor="middle" font-family="Arial,sans-serif" font-size="12" font-weight="bold" fill="#0f172a">Apply Approved Hours to</text>
<text x="490" y="282.5" text-anchor="middle" font-family="Arial,sans-serif" font-size="12" font-weight="bold" fill="#0f172a">Payroll</text>
<circle cx="85" cy="81" r="16" stroke="#0f172a" stroke-width="2" fill="white"/>
<line x1="85" y1="97" x2="85" y2="135" stroke="#0f172a" stroke-width="2"/>
<line x1="61" y1="109" x2="109" y2="109" stroke="#0f172a" stroke-width="2"/>
<line x1="85" y1="135" x2="61" y2="165" stroke="#0f172a" stroke-width="2"/>
<line x1="85" y1="135" x2="109" y2="165" stroke="#0f172a" stroke-width="2"/>
<text x="85" y="183" text-anchor="middle" font-family="Arial,sans-serif" font-size="12" font-weight="bold" fill="#0f172a">Site Engineer</text>
<circle cx="85" cy="241" r="16" stroke="#0f172a" stroke-width="2" fill="white"/>
<line x1="85" y1="257" x2="85" y2="295" stroke="#0f172a" stroke-width="2"/>
<line x1="61" y1="269" x2="109" y2="269" stroke="#0f172a" stroke-width="2"/>
<line x1="85" y1="295" x2="61" y2="325" stroke="#0f172a" stroke-width="2"/>
<line x1="85" y1="295" x2="109" y2="325" stroke="#0f172a" stroke-width="2"/>
<text x="85" y="343" text-anchor="middle" font-family="Arial,sans-serif" font-size="12" font-weight="bold" fill="#0f172a">HR Officer</text>
</svg>
